GRF
version=1
nRows=35
nColumns=10
inDegrees=no
endheader
time	1_ground_force_vx	1_ground_force_vy	1_ground_force_vz	1_ground_force_px	1_ground_force_py	1_ground_force_pz	1_ground_torque_x	1_ground_torque_y	1_ground_torque_z
      2.55000000	   -144.02848485	    867.96912215	    -34.37113851	      0.24009575	      0.00000000	      0.08426623	      0.00000000	     -2.88326677	      0.00000000
      2.55100000	   -142.53974826	    867.36098362	    -33.96357587	      0.24021329	      0.00000000	      0.08428833	     -0.00000000	     -2.87966844	     -0.00000000
      2.55200000	   -141.10688248	    866.60172171	    -33.50462259	      0.24034330	      0.00000000	      0.08431523	      0.00000000	     -2.87991680	      0.00000000
      2.55300000	   -139.74775866	    865.64060803	    -33.01052557	      0.24048666	      0.00000000	      0.08433348	     -0.00000000	     -2.88570214	     -0.00000000
      2.55400000	   -138.45760508	    864.42932124	    -32.48902152	      0.24064552	      0.00000000	      0.08433627	      0.00000000	     -2.89200223	      0.00000000
      2.55500000	   -137.21230315	    863.02196428	    -31.92962390	      0.24082283	      0.00000000	      0.08434146	     -0.00000000	     -2.89635127	     -0.00000000
      2.55600000	   -135.97990368	    861.47367695	    -31.33443536	      0.24101489	      0.00000000	      0.08436029	      0.00000000	     -2.89026974	      0.00000000
      2.55700000	   -134.76199388	    859.90666193	    -30.70969951	      0.24122131	      0.00000000	      0.08440546	     -0.00000000	     -2.87132910	     -0.00000000
      2.55800000	   -133.57130582	    858.38152000	    -30.07767940	      0.24144362	      0.00000000	      0.08447640	      0.00000000	     -2.84333001	      0.00000000
      2.55900000	   -132.42874002	    856.81336797	    -29.46003681	      0.24169006	      0.00000000	      0.08454909	     -0.00000000	     -2.81205696	     -0.00000000
      2.56000000	   -131.36959300	    855.08123574	    -28.87642072	      0.24196437	      0.00000000	      0.08459952	      0.00000000	     -2.78703658	      0.00000000
      2.56100000	   -130.40259127	    853.12554915	    -28.34389866	      0.24226752	      0.00000000	      0.08462454	     -0.00000000	     -2.77094747	     -0.00000000
      2.56200000	   -129.50612627	    850.97694266	    -27.87576018	      0.24258409	      0.00000000	      0.08463431	      0.00000000	     -2.75776613	      0.00000000
      2.56300000	   -128.66464612	    848.70428834	    -27.46339522	      0.24289634	      0.00000000	      0.08464663	     -0.00000000	     -2.74206587	     -0.00000000
      2.56400000	   -127.81870191	    846.36301620	    -27.08787227	      0.24320010	      0.00000000	      0.08467749	      0.00000000	     -2.71379087	      0.00000000
      2.56500000	   -126.93371796	    843.93473050	    -26.72711696	      0.24349967	      0.00000000	      0.08472470	     -0.00000000	     -2.67436933	     -0.00000000
      2.56600000	   -126.00978166	    841.35624896	    -26.37915152	      0.24380143	      0.00000000	      0.08477484	      0.00000000	     -2.63686791	      0.00000000
      2.56700000	   -125.05169844	    838.66455784	    -26.07291129	      0.24411849	      0.00000000	      0.08482202	     -0.00000000	     -2.60738377	     -0.00000000
      2.56800000	   -124.07904753	    835.90821672	    -25.81132596	      0.24445315	      0.00000000	      0.08485735	      0.00000000	     -2.58484414	      0.00000000
      2.56900000	   -123.09479653	    833.15695500	    -25.57643910	      0.24480468	      0.00000000	      0.08488582	     -0.00000000	     -2.56319883	     -0.00000000
      2.57000000	   -122.08111940	    830.47676656	    -25.34318794	      0.24517464	      0.00000000	      0.08493142	      0.00000000	     -2.53456029	      0.00000000
      2.57100000	   -121.01266496	    827.81195200	    -25.09345528	      0.24556525	      0.00000000	      0.08501299	     -0.00000000	     -2.49754223	     -0.00000000
      2.57200000	   -119.87738772	    825.06515488	    -24.83699839	      0.24598040	      0.00000000	      0.08512800	      0.00000000	     -2.45703107	      0.00000000
      2.57300000	   -118.70529147	    822.17939253	    -24.56715743	      0.24641767	      0.00000000	      0.08525984	     -0.00000000	     -2.41791995	     -0.00000000
      2.57400000	   -117.53895463	    819.18803988	    -24.27578675	      0.24686930	      0.00000000	      0.08539150	      0.00000000	     -2.38438851	      0.00000000
      2.57500000	   -116.40150821	    816.15564527	    -23.98785491	      0.24732971	      0.00000000	      0.08551742	     -0.00000000	     -2.35596048	     -0.00000000
      2.57600000	   -115.31490831	    813.10648549	    -23.73475928	      0.24779119	      0.00000000	      0.08564507	      0.00000000	     -2.32770120	      0.00000000
      2.57700000	   -114.27908535	    809.97329941	    -23.54712427	      0.24824205	      0.00000000	      0.08576422	     -0.00000000	     -2.30246246	     -0.00000000
      2.57800000	   -113.28544046	    806.70976282	    -23.43273250	      0.24867938	      0.00000000	      0.08585502	      0.00000000	     -2.28245331	      0.00000000
      2.57900000	   -112.31201367	    803.38860526	    -23.35675137	      0.24910326	      0.00000000	      0.08591454	     -0.00000000	     -2.26982072	     -0.00000000
      2.58000000	   -111.33430344	    800.15712505	    -23.30525084	      0.24953715	      0.00000000	      0.08595832	      0.00000000	     -2.26128328	      0.00000000
      2.58100000	   -110.34893549	    797.04230781	    -23.27264310	      0.24999091	      0.00000000	      0.08601141	     -0.00000000	     -2.25151883	     -0.00000000
      2.58200000	   -109.37535348	    794.00076803	    -23.26756114	      0.25045976	      0.00000000	      0.08609504	      0.00000000	     -2.23853902	      0.00000000
      2.58300000	   -108.42950529	    790.92595457	    -23.29757345	      0.25093996	      0.00000000	      0.08621608	     -0.00000000	     -2.22140570	     -0.00000000
      2.58400000	   -107.50889438	    787.77739973	    -23.36106129	      0.25143369	      0.00000000	      0.08636985	      0.00000000	     -2.19749255	      0.00000000
